<mxfile host="app.diagrams.net" agent="Mozilla/5.0 (X11; Ubuntu; Linux x86_64; rv:139.0) Gecko/20100101 Firefox/139.0" version="27.1.6">
  <diagram name="Page-1" id="M-Ojg86SOPLshwDXzzaj">
    <mxGraphModel dx="828" dy="860" grid="1" gridSize="10" guides="1" tooltips="1" connect="1" arrows="1" fold="1" page="1" pageScale="1" pageWidth="850" pageHeight="1100" math="0" shadow="0">
      <root>
        <mxCell id="0" />
        <mxCell id="1" parent="0" />
        <mxCell id="g30gicR2P6DNS6eSlVAu-12" value="Plugin" style="rounded=1;whiteSpace=wrap;html=1;fillColor=#d5e8d4;strokeColor=#82b366;align=left;verticalAlign=top;horizontal=1;spacingTop=0;spacingLeft=20;fillStyle=auto;opacity=50;arcSize=6;fontColor=#97D077;" parent="1" vertex="1">
          <mxGeometry x="870" y="20" width="760" height="440" as="geometry" />
        </mxCell>
        <mxCell id="g30gicR2P6DNS6eSlVAu-11" value="Application" style="rounded=1;whiteSpace=wrap;html=1;fillColor=#dae8fc;strokeColor=#6c8ebf;align=left;verticalAlign=top;horizontal=1;spacingTop=0;spacingLeft=20;fillStyle=auto;opacity=50;arcSize=7;fontColor=#7EA6E0;" parent="1" vertex="1">
          <mxGeometry x="880" y="200" width="710" height="250" as="geometry" />
        </mxCell>
        <mxCell id="g30gicR2P6DNS6eSlVAu-1" value="&lt;div align=&quot;left&quot;&gt;Domain&lt;/div&gt;" style="rounded=1;whiteSpace=wrap;html=1;fillColor=#e1d5e7;strokeColor=#9673a6;align=left;verticalAlign=top;horizontal=1;spacingTop=0;spacingLeft=20;fillStyle=auto;gradientColor=none;opacity=50;arcSize=4;fontColor=#A680B8;" parent="1" vertex="1">
          <mxGeometry x="1300" y="210" width="280" height="230" as="geometry" />
        </mxCell>
        <mxCell id="g30gicR2P6DNS6eSlVAu-2" value="&lt;div&gt;&lt;font&gt;&lt;span&gt;«enum»&lt;/span&gt;&lt;/font&gt;&lt;/div&gt;&lt;div&gt;&lt;font&gt;&lt;span&gt;TypeIcon&lt;/span&gt;&lt;/font&gt;&lt;/div&gt;" style="rounded=0;whiteSpace=wrap;html=1;fontColor=#000000;fontSize=12;" parent="1" vertex="1">
          <mxGeometry x="1310" y="390" width="120" height="40" as="geometry" />
        </mxCell>
        <mxCell id="g30gicR2P6DNS6eSlVAu-9" style="edgeStyle=orthogonalEdgeStyle;rounded=0;orthogonalLoop=1;jettySize=auto;html=1;exitX=0.5;exitY=1;exitDx=0;exitDy=0;entryX=0.5;entryY=0;entryDx=0;entryDy=0;" parent="1" source="g30gicR2P6DNS6eSlVAu-3" target="g30gicR2P6DNS6eSlVAu-2" edge="1">
          <mxGeometry relative="1" as="geometry" />
        </mxCell>
        <mxCell id="g30gicR2P6DNS6eSlVAu-3" value="Type" style="rounded=0;whiteSpace=wrap;html=1;fontColor=#000000;fontSize=12;" parent="1" vertex="1">
          <mxGeometry x="1310" y="330" width="120" height="40" as="geometry" />
        </mxCell>
        <mxCell id="g30gicR2P6DNS6eSlVAu-4" value="Transfer" style="rounded=0;whiteSpace=wrap;html=1;fontColor=#000000;fontSize=12;" parent="1" vertex="1">
          <mxGeometry x="1450" y="330" width="120" height="40" as="geometry" />
        </mxCell>
        <mxCell id="g30gicR2P6DNS6eSlVAu-7" style="edgeStyle=orthogonalEdgeStyle;rounded=0;orthogonalLoop=1;jettySize=auto;html=1;exitX=0.5;exitY=1;exitDx=0;exitDy=0;entryX=0.5;entryY=0;entryDx=0;entryDy=0;" parent="1" source="g30gicR2P6DNS6eSlVAu-5" target="g30gicR2P6DNS6eSlVAu-3" edge="1">
          <mxGeometry relative="1" as="geometry" />
        </mxCell>
        <mxCell id="g30gicR2P6DNS6eSlVAu-5" value="&lt;div&gt;&lt;font&gt;&lt;span&gt;«interface»&lt;/span&gt;&lt;/font&gt;&lt;/div&gt;&lt;div&gt;&lt;font&gt;&lt;span&gt;TypeRepository&lt;/span&gt;&lt;/font&gt;&lt;/div&gt;" style="rounded=0;whiteSpace=wrap;html=1;fontColor=#000000;fontSize=12;" parent="1" vertex="1">
          <mxGeometry x="1310" y="240" width="120" height="40" as="geometry" />
        </mxCell>
        <mxCell id="g30gicR2P6DNS6eSlVAu-8" style="edgeStyle=orthogonalEdgeStyle;rounded=0;orthogonalLoop=1;jettySize=auto;html=1;exitX=0.5;exitY=1;exitDx=0;exitDy=0;entryX=0.5;entryY=0;entryDx=0;entryDy=0;" parent="1" source="g30gicR2P6DNS6eSlVAu-6" target="g30gicR2P6DNS6eSlVAu-4" edge="1">
          <mxGeometry relative="1" as="geometry" />
        </mxCell>
        <mxCell id="g30gicR2P6DNS6eSlVAu-6" value="&lt;div&gt;&lt;font&gt;&lt;span&gt;«interface»&lt;/span&gt;&lt;/font&gt;&lt;/div&gt;&lt;div&gt;&lt;font&gt;&lt;span&gt;TransferRepository&lt;/span&gt;&lt;/font&gt;&lt;/div&gt;" style="rounded=0;whiteSpace=wrap;html=1;fontColor=#000000;fontSize=12;" parent="1" vertex="1">
          <mxGeometry x="1450" y="240" width="120" height="40" as="geometry" />
        </mxCell>
        <mxCell id="g30gicR2P6DNS6eSlVAu-14" style="rounded=0;orthogonalLoop=1;jettySize=auto;html=1;exitX=0.5;exitY=1;exitDx=0;exitDy=0;entryX=0.5;entryY=0;entryDx=0;entryDy=0;endArrow=block;endFill=0;" parent="1" source="g30gicR2P6DNS6eSlVAu-13" target="g30gicR2P6DNS6eSlVAu-6" edge="1">
          <mxGeometry relative="1" as="geometry" />
        </mxCell>
        <mxCell id="g30gicR2P6DNS6eSlVAu-15" style="rounded=0;orthogonalLoop=1;jettySize=auto;html=1;exitX=0.5;exitY=1;exitDx=0;exitDy=0;entryX=0.5;entryY=0;entryDx=0;entryDy=0;endArrow=block;endFill=0;" parent="1" source="g30gicR2P6DNS6eSlVAu-13" target="g30gicR2P6DNS6eSlVAu-5" edge="1">
          <mxGeometry relative="1" as="geometry" />
        </mxCell>
        <mxCell id="g30gicR2P6DNS6eSlVAu-23" style="edgeStyle=orthogonalEdgeStyle;rounded=0;orthogonalLoop=1;jettySize=auto;html=1;exitX=0.25;exitY=0;exitDx=0;exitDy=0;entryX=0;entryY=0.5;entryDx=0;entryDy=0;" parent="1" source="g30gicR2P6DNS6eSlVAu-13" target="g30gicR2P6DNS6eSlVAu-19" edge="1">
          <mxGeometry relative="1" as="geometry">
            <Array as="points">
              <mxPoint x="1340" y="120" />
            </Array>
          </mxGeometry>
        </mxCell>
        <mxCell id="g30gicR2P6DNS6eSlVAu-24" style="edgeStyle=orthogonalEdgeStyle;rounded=0;orthogonalLoop=1;jettySize=auto;html=1;exitX=0.25;exitY=0;exitDx=0;exitDy=0;entryX=0;entryY=0.5;entryDx=0;entryDy=0;" parent="1" source="g30gicR2P6DNS6eSlVAu-13" target="g30gicR2P6DNS6eSlVAu-18" edge="1">
          <mxGeometry relative="1" as="geometry" />
        </mxCell>
        <mxCell id="g30gicR2P6DNS6eSlVAu-29" style="edgeStyle=orthogonalEdgeStyle;rounded=0;orthogonalLoop=1;jettySize=auto;html=1;exitX=0.25;exitY=0;exitDx=0;exitDy=0;entryX=1;entryY=0.5;entryDx=0;entryDy=0;" parent="1" source="g30gicR2P6DNS6eSlVAu-13" target="g30gicR2P6DNS6eSlVAu-28" edge="1">
          <mxGeometry relative="1" as="geometry">
            <Array as="points">
              <mxPoint x="1340" y="120" />
            </Array>
          </mxGeometry>
        </mxCell>
        <mxCell id="g30gicR2P6DNS6eSlVAu-30" style="edgeStyle=orthogonalEdgeStyle;rounded=0;orthogonalLoop=1;jettySize=auto;html=1;exitX=0.25;exitY=0;exitDx=0;exitDy=0;entryX=1;entryY=0.5;entryDx=0;entryDy=0;" parent="1" source="g30gicR2P6DNS6eSlVAu-13" target="g30gicR2P6DNS6eSlVAu-27" edge="1">
          <mxGeometry relative="1" as="geometry" />
        </mxCell>
        <mxCell id="HEgN47zH6W-jcIsqzY-4-13" style="rounded=0;orthogonalLoop=1;jettySize=auto;html=1;exitX=0.5;exitY=1;exitDx=0;exitDy=0;entryX=0.75;entryY=0;entryDx=0;entryDy=0;endArrow=block;endFill=0;" edge="1" parent="1" source="g30gicR2P6DNS6eSlVAu-13" target="HEgN47zH6W-jcIsqzY-4-12">
          <mxGeometry relative="1" as="geometry" />
        </mxCell>
        <mxCell id="g30gicR2P6DNS6eSlVAu-13" value="ChaChingRepository" style="rounded=0;whiteSpace=wrap;html=1;fontColor=#000000;fontSize=12;" parent="1" vertex="1">
          <mxGeometry x="1310" y="150" width="120" height="40" as="geometry" />
        </mxCell>
        <mxCell id="g30gicR2P6DNS6eSlVAu-16" value="TypeEntity" style="rounded=0;whiteSpace=wrap;html=1;fontColor=#000000;fontSize=12;" parent="1" vertex="1">
          <mxGeometry x="1500" y="100" width="120" height="40" as="geometry" />
        </mxCell>
        <mxCell id="g30gicR2P6DNS6eSlVAu-17" value="TransferEntity" style="rounded=0;whiteSpace=wrap;html=1;fontColor=#000000;fontSize=12;" parent="1" vertex="1">
          <mxGeometry x="1500" y="50" width="120" height="40" as="geometry" />
        </mxCell>
        <mxCell id="g30gicR2P6DNS6eSlVAu-21" style="edgeStyle=orthogonalEdgeStyle;rounded=0;orthogonalLoop=1;jettySize=auto;html=1;exitX=1;exitY=0.5;exitDx=0;exitDy=0;entryX=0;entryY=0.5;entryDx=0;entryDy=0;" parent="1" source="g30gicR2P6DNS6eSlVAu-18" target="g30gicR2P6DNS6eSlVAu-17" edge="1">
          <mxGeometry relative="1" as="geometry" />
        </mxCell>
        <mxCell id="g30gicR2P6DNS6eSlVAu-18" value="TransferDAO" style="rounded=0;whiteSpace=wrap;html=1;fontColor=#000000;fontSize=12;" parent="1" vertex="1">
          <mxGeometry x="1360" y="50" width="120" height="40" as="geometry" />
        </mxCell>
        <mxCell id="g30gicR2P6DNS6eSlVAu-22" style="edgeStyle=orthogonalEdgeStyle;rounded=0;orthogonalLoop=1;jettySize=auto;html=1;exitX=1;exitY=0.5;exitDx=0;exitDy=0;entryX=0;entryY=0.5;entryDx=0;entryDy=0;" parent="1" source="g30gicR2P6DNS6eSlVAu-19" target="g30gicR2P6DNS6eSlVAu-16" edge="1">
          <mxGeometry relative="1" as="geometry" />
        </mxCell>
        <mxCell id="g30gicR2P6DNS6eSlVAu-19" value="TypeDAO" style="rounded=0;whiteSpace=wrap;html=1;fontColor=#000000;fontSize=12;" parent="1" vertex="1">
          <mxGeometry x="1360" y="100" width="120" height="40" as="geometry" />
        </mxCell>
        <mxCell id="g30gicR2P6DNS6eSlVAu-27" value="TransferDbMapper" style="rounded=0;whiteSpace=wrap;html=1;fontColor=#000000;fontSize=12;" parent="1" vertex="1">
          <mxGeometry x="1200" y="50" width="120" height="40" as="geometry" />
        </mxCell>
        <mxCell id="g30gicR2P6DNS6eSlVAu-28" value="TypeDbMapper" style="rounded=0;whiteSpace=wrap;html=1;fontColor=#000000;fontSize=12;" parent="1" vertex="1">
          <mxGeometry x="1200" y="100" width="120" height="40" as="geometry" />
        </mxCell>
        <mxCell id="HEgN47zH6W-jcIsqzY-4-1" value="TypeDto" style="rounded=0;whiteSpace=wrap;html=1;fontColor=#000000;fontSize=12;" vertex="1" parent="1">
          <mxGeometry x="1040" y="100" width="120" height="40" as="geometry" />
        </mxCell>
        <mxCell id="HEgN47zH6W-jcIsqzY-4-3" value="TransferDto" style="rounded=0;whiteSpace=wrap;html=1;fontColor=#000000;fontSize=12;" vertex="1" parent="1">
          <mxGeometry x="1040" y="50" width="120" height="40" as="geometry" />
        </mxCell>
        <mxCell id="HEgN47zH6W-jcIsqzY-4-4" value="TypeBackupMapper" style="rounded=0;whiteSpace=wrap;html=1;fontColor=#000000;fontSize=12;" vertex="1" parent="1">
          <mxGeometry x="880" y="100" width="120" height="40" as="geometry" />
        </mxCell>
        <mxCell id="HEgN47zH6W-jcIsqzY-4-5" value="&lt;div&gt;TransferBackup-&lt;/div&gt;&lt;div&gt;Mapper&lt;/div&gt;" style="rounded=0;whiteSpace=wrap;html=1;fontColor=#000000;fontSize=12;" vertex="1" parent="1">
          <mxGeometry x="880" y="50" width="120" height="40" as="geometry" />
        </mxCell>
        <mxCell id="HEgN47zH6W-jcIsqzY-4-7" style="edgeStyle=orthogonalEdgeStyle;rounded=0;orthogonalLoop=1;jettySize=auto;html=1;exitX=0.25;exitY=0;exitDx=0;exitDy=0;entryX=0;entryY=0.5;entryDx=0;entryDy=0;" edge="1" parent="1" source="HEgN47zH6W-jcIsqzY-4-6" target="HEgN47zH6W-jcIsqzY-4-1">
          <mxGeometry relative="1" as="geometry">
            <Array as="points">
              <mxPoint x="1020" y="120" />
            </Array>
          </mxGeometry>
        </mxCell>
        <mxCell id="HEgN47zH6W-jcIsqzY-4-8" style="edgeStyle=orthogonalEdgeStyle;rounded=0;orthogonalLoop=1;jettySize=auto;html=1;exitX=0.25;exitY=0;exitDx=0;exitDy=0;entryX=0;entryY=0.5;entryDx=0;entryDy=0;" edge="1" parent="1" source="HEgN47zH6W-jcIsqzY-4-6" target="HEgN47zH6W-jcIsqzY-4-3">
          <mxGeometry relative="1" as="geometry" />
        </mxCell>
        <mxCell id="HEgN47zH6W-jcIsqzY-4-9" style="edgeStyle=orthogonalEdgeStyle;rounded=0;orthogonalLoop=1;jettySize=auto;html=1;exitX=0.25;exitY=0;exitDx=0;exitDy=0;entryX=1;entryY=0.5;entryDx=0;entryDy=0;" edge="1" parent="1" source="HEgN47zH6W-jcIsqzY-4-6" target="HEgN47zH6W-jcIsqzY-4-4">
          <mxGeometry relative="1" as="geometry">
            <Array as="points">
              <mxPoint x="1020" y="120" />
            </Array>
          </mxGeometry>
        </mxCell>
        <mxCell id="HEgN47zH6W-jcIsqzY-4-10" style="edgeStyle=orthogonalEdgeStyle;rounded=0;orthogonalLoop=1;jettySize=auto;html=1;exitX=0.25;exitY=0;exitDx=0;exitDy=0;entryX=1;entryY=0.5;entryDx=0;entryDy=0;" edge="1" parent="1" source="HEgN47zH6W-jcIsqzY-4-6" target="HEgN47zH6W-jcIsqzY-4-5">
          <mxGeometry relative="1" as="geometry" />
        </mxCell>
        <mxCell id="HEgN47zH6W-jcIsqzY-4-16" style="rounded=0;orthogonalLoop=1;jettySize=auto;html=1;exitX=0.25;exitY=1;exitDx=0;exitDy=0;entryX=0.5;entryY=0;entryDx=0;entryDy=0;endArrow=block;endFill=0;" edge="1" parent="1" source="HEgN47zH6W-jcIsqzY-4-6" target="HEgN47zH6W-jcIsqzY-4-14">
          <mxGeometry relative="1" as="geometry" />
        </mxCell>
        <mxCell id="HEgN47zH6W-jcIsqzY-4-19" style="edgeStyle=orthogonalEdgeStyle;rounded=0;orthogonalLoop=1;jettySize=auto;html=1;exitX=0.75;exitY=1;exitDx=0;exitDy=0;entryX=0.5;entryY=0;entryDx=0;entryDy=0;" edge="1" parent="1" source="HEgN47zH6W-jcIsqzY-4-6" target="HEgN47zH6W-jcIsqzY-4-15">
          <mxGeometry relative="1" as="geometry" />
        </mxCell>
        <mxCell id="HEgN47zH6W-jcIsqzY-4-20" style="edgeStyle=orthogonalEdgeStyle;rounded=0;orthogonalLoop=1;jettySize=auto;html=1;exitX=0.75;exitY=1;exitDx=0;exitDy=0;entryX=0.25;entryY=0;entryDx=0;entryDy=0;" edge="1" parent="1" source="HEgN47zH6W-jcIsqzY-4-6" target="HEgN47zH6W-jcIsqzY-4-12">
          <mxGeometry relative="1" as="geometry" />
        </mxCell>
        <mxCell id="HEgN47zH6W-jcIsqzY-4-6" value="JsonBackupService" style="rounded=0;whiteSpace=wrap;html=1;fontColor=#000000;fontSize=12;" vertex="1" parent="1">
          <mxGeometry x="990" y="150" width="120" height="40" as="geometry" />
        </mxCell>
        <mxCell id="HEgN47zH6W-jcIsqzY-4-12" value="&lt;div&gt;&lt;font&gt;&lt;span&gt;«interface»&lt;/span&gt;&lt;/font&gt;&lt;/div&gt;&lt;div&gt;&lt;font style=&quot;font-size: 10px;&quot;&gt;&lt;span&gt;BackupImportRepository&lt;/span&gt;&lt;/font&gt;&lt;/div&gt;" style="rounded=0;whiteSpace=wrap;html=1;fontColor=#000000;fontSize=12;" vertex="1" parent="1">
          <mxGeometry x="1150" y="240" width="120" height="40" as="geometry" />
        </mxCell>
        <mxCell id="HEgN47zH6W-jcIsqzY-4-14" value="&lt;div&gt;&lt;font&gt;&lt;span&gt;«interface»&lt;/span&gt;&lt;/font&gt;&lt;/div&gt;&lt;div&gt;&lt;font&gt;&lt;span&gt;BackupService&lt;/span&gt;&lt;/font&gt;&lt;/div&gt;" style="rounded=0;whiteSpace=wrap;html=1;fontColor=#000000;fontSize=12;" vertex="1" parent="1">
          <mxGeometry x="890" y="240" width="120" height="40" as="geometry" />
        </mxCell>
        <mxCell id="HEgN47zH6W-jcIsqzY-4-15" value="&lt;div&gt;&lt;font&gt;&lt;span&gt;«enum»&lt;/span&gt;&lt;/font&gt;&lt;/div&gt;ImportStrategy" style="rounded=0;whiteSpace=wrap;html=1;fontColor=#000000;fontSize=12;" vertex="1" parent="1">
          <mxGeometry x="1020" y="240" width="120" height="40" as="geometry" />
        </mxCell>
      </root>
    </mxGraphModel>
  </diagram>
</mxfile>
